<svg width="18" height="18" viewBox="0 0 18 18" fill="none" xmlns="http://www.w3.org/2000/svg">
<path fill-rule="evenodd" clip-rule="evenodd" d="M16.3638 9.00001H13.9093V1.63638C13.9104 1.34291 13.7543 1.07129 13.5002 0.924557C13.247 0.778403 12.9351 0.778403 12.682 0.924557L10.2275 2.33183L7.77291 0.924557C7.51976 0.778403 7.20788 0.778403 6.95473 0.924557L4.50018 2.33183L2.04564 0.924557C1.79249 0.778403 1.4806 0.778403 1.22746 0.924557C0.973302 1.07129 0.817201 1.34291 0.818366 1.63638V14.7273C0.818366 16.0829 1.9173 17.1818 3.27291 17.1818H14.7275C16.0831 17.1818 17.182 16.0829 17.182 14.7273V9.81819C17.182 9.36632 16.8157 9.00001 16.3638 9.00001ZM8.182 7.36365H6.54564C6.09377 7.36365 5.72746 6.99734 5.72746 6.54547C5.72746 6.0936 6.09377 5.72728 6.54564 5.72728H8.182C8.63387 5.72728 9.00019 6.0936 9.00019 6.54547C9.00019 6.99734 8.63387 7.36365 8.182 7.36365ZM4.90928 12.2727H9.81837C10.2702 12.2727 10.6365 12.6391 10.6365 13.0909C10.6365 13.5428 10.2702 13.9091 9.81837 13.9091H4.90928C4.45741 13.9091 4.09109 13.5428 4.09109 13.0909C4.09109 12.6391 4.45741 12.2727 4.90928 12.2727ZM2.45473 14.7273C2.45473 15.1792 2.82104 15.5455 3.27291 15.5455H12.4202C12.3249 15.2831 12.2751 15.0064 12.2729 14.7273V3.05183L10.6365 3.98456C10.3802 4.11842 10.0747 4.11842 9.81837 3.98456L7.36382 2.57728L4.90928 3.98456C4.65298 4.11842 4.34739 4.11842 4.09109 3.98456L2.45473 3.05183V14.7273ZM15.5456 14.7273C15.5456 15.1792 15.1793 15.5455 14.7275 15.5455C14.2756 15.5455 13.9093 15.1792 13.9093 14.7273V10.6364H15.5456V14.7273ZM4.90928 9.00001H9.81837C10.2702 9.00001 10.6365 9.36632 10.6365 9.81819C10.6365 10.2701 10.2702 10.6364 9.81837 10.6364H4.90928C4.45741 10.6364 4.09109 10.2701 4.09109 9.81819C4.09109 9.36632 4.45741 9.00001 4.90928 9.00001Z" fill="#6C757D"/>
</svg>
