<svg width="14" height="18" viewBox="0 0 14 18" fill="none" xmlns="http://www.w3.org/2000/svg">
<path fill-rule="evenodd" clip-rule="evenodd" d="M2.90962 0.818237H11.0914C12.4471 0.818237 13.546 1.91717 13.546 3.27278V14.7273C13.546 16.0829 12.4471 17.1819 11.0914 17.1819H2.90962C1.55402 17.1819 0.455078 16.0829 0.455078 14.7273V12.2728C0.455078 11.8209 0.821391 11.4546 1.27326 11.4546C1.72513 11.4546 2.09144 11.8209 2.09144 12.2728V14.7273C2.09144 15.1792 2.45775 15.5455 2.90962 15.5455H11.0914C11.5433 15.5455 11.9096 15.1792 11.9096 14.7273V3.27278C11.9096 2.82091 11.5433 2.4546 11.0914 2.4546H2.90962C2.45775 2.4546 2.09144 2.82091 2.09144 3.27278V5.72733C2.09144 6.1792 1.72513 6.54551 1.27326 6.54551C0.821391 6.54551 0.455078 6.1792 0.455078 5.72733V3.27278C0.455078 1.91717 1.55402 0.818237 2.90962 0.818237ZM1.27326 9.81824C0.821391 9.81824 0.455078 9.45193 0.455078 9.00006C0.455078 8.54819 0.821391 8.18187 1.27326 8.18187H7.48326L5.60144 6.30824C5.3939 6.1007 5.31285 5.7982 5.38881 5.5147C5.46478 5.2312 5.68622 5.00976 5.96972 4.93379C6.25323 4.85783 6.55572 4.93888 6.76326 5.14642L10.036 8.41915C10.1105 8.49696 10.1689 8.58871 10.2078 8.68915C10.2896 8.88834 10.2896 9.11177 10.2078 9.31097C10.1689 9.4114 10.1105 9.50315 10.036 9.58097L6.76326 12.8537C6.60963 13.0086 6.40051 13.0957 6.18235 13.0957C5.96419 13.0957 5.75507 13.0086 5.60144 12.8537C5.44655 12.7001 5.35943 12.4909 5.35943 12.2728C5.35943 12.0546 5.44655 11.8455 5.60144 11.6919L7.48326 9.81824H1.27326Z" fill="#6C757D"/>
</svg>
