<svg width="18" height="16" viewBox="0 0 18 16" fill="none" xmlns="http://www.w3.org/2000/svg">
<path fill-rule="evenodd" clip-rule="evenodd" d="M12.2727 3.50002H14.7272C16.0828 3.50002 17.1818 4.59896 17.1818 5.95457V13.3182C17.1818 14.6738 16.0828 15.7727 14.7272 15.7727H3.27266C1.91705 15.7727 0.818115 14.6738 0.818115 13.3182V5.95457C0.818115 5.30358 1.07672 4.67926 1.53703 4.21894C1.99735 3.75863 2.62167 3.50002 3.27266 3.50002H5.72721V2.68184C5.72721 1.32623 6.82614 0.227295 8.18175 0.227295H9.81812C11.1737 0.227295 12.2727 1.32623 12.2727 2.68184V3.50002ZM8.18175 1.86366C7.72988 1.86366 7.36357 2.22997 7.36357 2.68184V3.50002H10.6363V2.68184C10.6363 2.22997 10.27 1.86366 9.81812 1.86366H8.18175ZM15.5454 13.3182C15.5454 13.7701 15.1791 14.1364 14.7272 14.1364H3.27266C2.82079 14.1364 2.45448 13.7701 2.45448 13.3182V8.8182C3.25257 9.13476 4.07299 9.39183 4.90902 9.58729V10.07C4.90902 10.5219 5.27534 10.8882 5.72721 10.8882C6.17908 10.8882 6.54539 10.5219 6.54539 10.07V9.8982C7.35895 10.009 8.17888 10.0664 8.99993 10.07C9.82099 10.0664 10.6409 10.009 11.4545 9.8982V10.07C11.4545 10.5219 11.8208 10.8882 12.2727 10.8882C12.7245 10.8882 13.0908 10.5219 13.0908 10.07V9.58729C13.9269 9.39183 14.7473 9.13476 15.5454 8.8182V13.3182ZM13.0908 7.84457C13.929 7.63579 14.7496 7.36224 15.5454 7.02639V5.95457C15.5454 5.5027 15.1791 5.13639 14.7272 5.13639H3.27266C2.82079 5.13639 2.45448 5.5027 2.45448 5.95457V7.04275C3.25025 7.37861 4.0709 7.65216 4.90902 7.86093V7.59093C4.90902 7.13906 5.27534 6.77275 5.72721 6.77275C6.17908 6.77275 6.54539 7.13906 6.54539 7.59093V8.19639C8.17254 8.44187 9.82732 8.44187 11.4545 8.19639V7.59093C11.4545 7.13906 11.8208 6.77275 12.2727 6.77275C12.7245 6.77275 13.0908 7.13906 13.0908 7.59093V7.84457Z" fill="#6C757D"/>
</svg>
