<svg width="18" height="18" viewBox="0 0 18 18" fill="none" xmlns="http://www.w3.org/2000/svg">
<path fill-rule="evenodd" clip-rule="evenodd" d="M16.3636 9.00001H13.909V1.63638C13.9102 1.34291 13.7541 1.07129 13.4999 0.924557C13.2468 0.778403 12.9349 0.778403 12.6818 0.924557L10.2272 2.33183L7.77267 0.924557C7.51952 0.778403 7.20763 0.778403 6.95449 0.924557L4.49994 2.33183L2.04539 0.924557C1.79225 0.778403 1.48036 0.778403 1.22721 0.924557C0.973057 1.07129 0.816957 1.34291 0.818122 1.63638V14.7273C0.818122 16.0829 1.91706 17.1818 3.27267 17.1818H14.7272C16.0828 17.1818 17.1818 16.0829 17.1818 14.7273V9.81819C17.1818 9.36632 16.8154 9.00001 16.3636 9.00001ZM8.18176 7.36365H6.5454C6.09353 7.36365 5.72721 6.99734 5.72721 6.54547C5.72721 6.0936 6.09353 5.72728 6.5454 5.72728H8.18176C8.63363 5.72728 8.99994 6.0936 8.99994 6.54547C8.99994 6.99734 8.63363 7.36365 8.18176 7.36365ZM4.90903 12.2727H9.81812C10.27 12.2727 10.6363 12.6391 10.6363 13.0909C10.6363 13.5428 10.27 13.9091 9.81812 13.9091H4.90903C4.45716 13.9091 4.09085 13.5428 4.09085 13.0909C4.09085 12.6391 4.45716 12.2727 4.90903 12.2727ZM2.45449 14.7273C2.45449 15.1792 2.8208 15.5455 3.27267 15.5455H12.4199C12.3247 15.2831 12.2749 15.0064 12.2727 14.7273V3.05183L10.6363 3.98456C10.38 4.11842 10.0744 4.11842 9.81812 3.98456L7.36358 2.57728L4.90903 3.98456C4.65273 4.11842 4.34715 4.11842 4.09085 3.98456L2.45449 3.05183V14.7273ZM15.5454 14.7273C15.5454 15.1792 15.1791 15.5455 14.7272 15.5455C14.2753 15.5455 13.909 15.1792 13.909 14.7273V10.6364H15.5454V14.7273ZM4.90903 9.00001H9.81812C10.27 9.00001 10.6363 9.36632 10.6363 9.81819C10.6363 10.2701 10.27 10.6364 9.81812 10.6364H4.90903C4.45716 10.6364 4.09085 10.2701 4.09085 9.81819C4.09085 9.36632 4.45716 9.00001 4.90903 9.00001Z" fill="#6C757D"/>
</svg>
