<svg width="18" height="16" viewBox="0 0 18 16" fill="none" xmlns="http://www.w3.org/2000/svg">
<path fill-rule="evenodd" clip-rule="evenodd" d="M16.4783 5.54544C16.8006 5.57301 17.0764 5.78787 17.1819 6.09362C17.2631 6.39902 17.1612 6.72389 16.9201 6.92817L13.541 10.2009L14.3592 14.8482C14.4188 15.1614 14.2911 15.4807 14.0319 15.6663C13.8915 15.768 13.7225 15.8224 13.5492 15.8218C13.4174 15.8222 13.2877 15.7884 13.1728 15.7236L9.00011 13.5309L4.81102 15.7154C4.53696 15.8608 4.20428 15.8386 3.95193 15.6582C3.69275 15.4725 3.56502 15.1532 3.62466 14.84L4.44284 10.1927L1.06375 6.91999C0.849432 6.70611 0.770746 6.39137 0.859204 6.1018C0.95595 5.80515 1.21301 5.58935 1.52193 5.54544L6.17739 4.85817L8.26375 0.636349C8.40046 0.354084 8.68649 0.174805 9.00011 0.174805C9.31374 0.174805 9.59977 0.354084 9.73648 0.636349L11.8228 4.86635L16.4783 5.54544ZM11.9128 10.0945C11.8663 9.82749 11.9552 9.55479 12.15 9.36635L14.6046 6.91999L11.16 6.42089C10.8909 6.38346 10.6579 6.21485 10.5382 5.97089L9.00003 2.84544L7.54366 5.96271C7.42397 6.20666 7.19098 6.37528 6.92184 6.41271L3.4773 6.9118L5.93184 9.36635C6.12667 9.55479 6.21552 9.82749 6.16912 10.0945L5.58003 13.5227L8.65639 11.8863C8.89678 11.7583 9.18509 11.7583 9.42548 11.8863L12.5018 13.5227L11.9128 10.0945Z" fill="#6C757D"/>
</svg>
