<svg width="18" height="17" viewBox="0 0 18 17" fill="none" xmlns="http://www.w3.org/2000/svg">
<path fill-rule="evenodd" clip-rule="evenodd" d="M6.74175 13.7272H3.27266C2.82079 13.7272 2.45448 13.3609 2.45448 12.9091V9.43997C2.45322 9.2225 2.5386 9.01347 2.69175 8.85906L8.36993 3.18906L10.6772 0.873609C10.8308 0.718716 11.04 0.631592 11.2581 0.631592C11.4763 0.631592 11.6854 0.718716 11.839 0.873609L15.3081 4.38361C15.463 4.53724 15.5501 4.74636 15.5501 4.96452C15.5501 5.18268 15.463 5.3918 15.3081 5.54543L12.9845 7.81997L7.32266 13.49C7.16825 13.6431 6.95922 13.7285 6.74175 13.7272ZM13.5736 4.92361L11.2581 2.60816L10.0963 3.76998L12.4118 6.08543L13.5736 4.92361ZM4.09084 9.77543L8.94266 4.92361L11.2581 7.23906L6.4063 12.0909H4.09084V9.77543ZM1.6363 15.3636H16.3636C16.8154 15.3636 17.1818 15.7299 17.1818 16.1818C17.1818 16.6337 16.8154 17 16.3636 17H1.6363C1.18443 17 0.818115 16.6337 0.818115 16.1818C0.818115 15.7299 1.18443 15.3636 1.6363 15.3636Z" fill="#6C757D"/>
</svg>
