<svg width="18" height="18" viewBox="0 0 18 18" fill="none" xmlns="http://www.w3.org/2000/svg">
<path fill-rule="evenodd" clip-rule="evenodd" d="M3.2729 0.818237H14.7275C16.0831 0.818237 17.182 1.91717 17.182 3.27278V16.3637C17.1803 16.694 16.9803 16.9909 16.6747 17.1164C16.5776 17.1622 16.4711 17.1846 16.3638 17.1819C16.1463 17.1831 15.9373 17.0978 15.7829 16.9446L12.7556 13.9091H3.2729C1.9173 13.9091 0.818359 12.8102 0.818359 11.4546V3.27278C0.818359 1.91717 1.9173 0.818237 3.2729 0.818237ZM9.00018 5.72733C8.54831 5.72733 8.182 6.09364 8.182 6.54551V9.81824C8.182 10.2701 8.54831 10.6364 9.00018 10.6364C9.45205 10.6364 9.81836 10.2701 9.81836 9.81824V6.54551C9.81836 6.09364 9.45205 5.72733 9.00018 5.72733ZM5.72745 8.18187C5.27558 8.18187 4.90927 8.54819 4.90927 9.00006V9.81824C4.90927 10.2701 5.27558 10.6364 5.72745 10.6364C6.17932 10.6364 6.54563 10.2701 6.54563 9.81824V9.00006C6.54563 8.54819 6.17932 8.18187 5.72745 8.18187ZM15.5456 14.3919L13.672 12.5101C13.5176 12.3569 13.3086 12.2715 13.0911 12.2728H3.2729C2.82104 12.2728 2.45472 11.9065 2.45472 11.4546V3.27278C2.45472 2.82091 2.82104 2.4546 3.2729 2.4546H14.7275C15.1793 2.4546 15.5456 2.82091 15.5456 3.27278V14.3919ZM11.4547 4.90915C11.4547 4.45728 11.821 4.09096 12.2729 4.09096C12.7248 4.09096 13.0911 4.45728 13.0911 4.90915V9.81824C13.0911 10.2701 12.7248 10.6364 12.2729 10.6364C11.821 10.6364 11.4547 10.2701 11.4547 9.81824V4.90915Z" fill="#6C757D"/>
</svg>
