<svg width="18" height="14" viewBox="0 0 18 14" fill="none" xmlns="http://www.w3.org/2000/svg">
<path fill-rule="evenodd" clip-rule="evenodd" d="M15.1869 2.45905C15.8473 3.92824 15.5841 5.64823 14.5145 6.85268C16.6794 8.20569 17.9891 10.5835 17.9755 13.1363C17.9755 13.5882 17.6091 13.9545 17.1573 13.9545C16.7054 13.9545 16.3391 13.5882 16.3391 13.1363C16.3567 10.9078 15.08 8.87137 13.0664 7.91632L12.96 7.85905L12.6409 7.64632C12.405 7.49105 12.2658 7.22506 12.2727 6.94268C12.2802 6.65801 12.4351 6.3977 12.6818 6.25541C13.4392 5.81813 13.9067 5.01088 13.9091 4.13632C13.9091 2.78071 12.8102 1.68177 11.4545 1.68177C11.0027 1.68177 10.6364 1.31546 10.6364 0.863593C10.6364 0.411723 11.0027 0.0454103 11.4545 0.0454103C13.0654 0.0449799 14.5265 0.989855 15.1869 2.45905ZM9.24546 7.17996C10.1288 6.41533 10.6364 5.30464 10.6364 4.13632C10.6364 1.87697 8.8048 0.0454103 6.54545 0.0454103C4.28611 0.0454103 2.45455 1.87697 2.45455 4.13632C2.45453 5.30464 2.96211 6.41533 3.84545 7.17996C1.50622 8.2392 0.00245954 10.5684 0 13.1363C0 13.5882 0.366312 13.9545 0.818182 13.9545C1.27005 13.9545 1.63636 13.5882 1.63636 13.1363C1.63636 10.4251 3.83424 8.22723 6.54545 8.22723C9.25667 8.22723 11.4545 10.4251 11.4545 13.1363C11.4545 13.5882 11.8209 13.9545 12.2727 13.9545C12.7246 13.9545 13.0909 13.5882 13.0909 13.1363C13.0885 10.5684 11.5847 8.2392 9.24546 7.17996ZM6.54545 6.59087C5.18985 6.59087 4.09091 5.49193 4.09091 4.13632C4.09091 2.78071 5.18985 1.68177 6.54545 1.68177C7.90106 1.68177 9 2.78071 9 4.13632C9 4.78731 8.7414 5.41163 8.28108 5.87195C7.82076 6.33226 7.19644 6.59087 6.54545 6.59087Z" fill="#6C757D"/>
</svg>
