<svg width="32" height="34" viewBox="0 0 32 34" fill="none" xmlns="http://www.w3.org/2000/svg">
<path fill-rule="evenodd" clip-rule="evenodd" d="M27.6337 8.73851C25.7286 8.7716 24.1126 7.53725 23.5477 5.82015L22.0912 6.16951L21.6648 4.5303L23.3563 4.12464C23.5485 2.0001 25.298 0.312294 27.4849 0.274311C29.8276 0.23362 31.7596 2.0955 31.8006 4.43275C31.8416 6.77 29.9765 8.69782 27.6337 8.73851ZM27.5149 1.96756C26.1097 1.99197 24.9901 3.14852 25.0147 4.55093C25.0393 5.95334 26.1988 7.07031 27.604 7.0459C29.0091 7.0215 30.1288 5.86459 30.1042 4.46253C30.0796 3.06048 28.92 1.94316 27.5149 1.96756ZM29.6261 25.6363C29.6999 29.8435 26.3416 33.3131 22.1254 33.3863C17.909 33.4596 14.431 30.1083 14.3572 25.9015C14.3204 23.8079 15.1346 21.8977 16.4806 20.497L14.0669 17.8946L15.2914 16.7225L17.7885 19.4153C18.959 18.6432 20.352 18.1779 21.8582 18.1517C26.0747 18.0781 29.5523 21.429 29.6261 25.6363ZM21.8878 19.8439C18.6082 19.9008 15.9964 22.5995 16.0538 25.872C16.1112 29.1444 18.8161 31.7504 22.0957 31.6934C25.3754 31.6365 27.9869 28.9381 27.9295 25.6657C27.8721 22.3933 25.1675 19.7869 21.8878 19.8439ZM16.466 5.7785L20.015 4.92684L20.4418 6.56608L16.8928 7.41738L16.466 5.7785ZM12.3641 9.00428C12.3865 10.2818 11.9929 11.4643 11.3205 12.4442L14.1384 15.4818L12.914 16.6546L10.1586 13.6843C9.16278 14.4945 7.91382 15.0084 6.5296 15.0324C3.24996 15.0894 0.545374 12.483 0.487969 9.21091C0.430564 5.93884 3.04244 3.2401 6.32172 3.18315C8.84232 3.13937 11.0107 4.67558 11.9109 6.87223L14.8152 6.1751L15.2417 7.8143L12.3057 8.51883C12.3227 8.68129 12.3611 8.83725 12.3641 9.00428ZM6.35151 4.86321C4.00228 4.90401 2.13083 6.83733 2.17195 9.1814C2.21308 11.5255 4.15121 13.393 6.50044 13.3522C8.84968 13.3114 10.7211 11.3777 10.68 9.03363C10.6389 6.68956 8.70111 4.8224 6.35151 4.86321Z" fill="url(#paint0_linear_2_21215)"/>
<defs>
<linearGradient id="paint0_linear_2_21215" x1="0.91752" y1="33.7556" x2="32.3041" y2="33.2063" gradientUnits="userSpaceOnUse">
<stop stop-color="white"/>
<stop offset="0.425317" stop-color="white"/>
<stop offset="0.708162" stop-color="#74D14C"/>
<stop offset="1" stop-color="#74D14C"/>
</linearGradient>
</defs>
</svg>
